<?xml version="1.0" standalone="no"?><!DOCTYPE svg PUBLIC "-//W3C//DTD SVG 1.1//EN" "http://www.w3.org/Graphics/SVG/1.1/DTD/svg11.dtd"><svg t="1620199200064" class="icon" viewBox="0 0 1024 1024" version="1.1" xmlns="http://www.w3.org/2000/svg" p-id="1139" xmlns:xlink="http://www.w3.org/1999/xlink" width="200" height="200"><defs><style type="text/css"></style></defs><path d="M819.2 256a85.333333 85.333333 0 0 0-126.344533-74.820267L367.9232 359.2704A51.2 51.2 0 0 0 341.333333 404.155733v121.719467a51.2 51.2 0 0 0 26.589867 44.885333l324.932267 178.090667A85.333333 85.333333 0 0 0 819.2 674.030933V256z" fill="#9C3230" p-id="1140"></path><path d="M716.8 460.8a102.4 68.266667 90 1 0 136.533333 0 102.4 68.266667 90 1 0-136.533333 0Z" fill="#D38745" p-id="1141"></path><path d="M785.066667 562.602667v111.4112a51.2 51.2 0 0 1-75.810134 44.9024L384.341333 540.842667a17.066667 17.066667 0 0 1-8.8576-14.9504v-121.7024a17.066667 17.066667 0 0 1 8.874667-14.967467L709.239467 211.114667A51.2 51.2 0 0 1 785.066667 256v109.312h34.133333V256a85.333333 85.333333 0 0 0-126.344533-74.837333L367.9232 359.2704A51.2 51.2 0 0 0 341.333333 404.138667v121.719466a51.2 51.2 0 0 0 26.589867 44.885334l324.932267 178.090666A85.333333 85.333333 0 0 0 819.2 674.013867v-111.4112h-34.133333z" fill="#000000" p-id="1142"></path><path d="M785.066667 565.384533v104.448c0 19.950933-9.437867 34.133333-17.066667 34.133334-7.6288 0-17.066667-14.1824-17.066667-34.133334v-409.6c0-19.968 9.437867-34.133333 17.066667-34.133333 7.6288 0 17.066667 14.165333 17.066667 34.133333v104.192h34.133333v-104.209066c0-36.590933-21.111467-68.266667-51.2-68.266667s-51.2 31.675733-51.2 68.266667v409.6c0 36.590933 21.111467 68.266667 51.2 68.266666s51.2-31.675733 51.2-68.266666v-104.448h-34.133333zM273.066667 379.682133h34.133333a68.266667 68.266667 0 0 1 68.266667 68.266667v34.133333a68.266667 68.266667 0 0 1-68.266667 68.266667h-34.133333a68.266667 68.266667 0 0 1-68.266667-68.266667v-34.133333a68.266667 68.266667 0 0 1 68.266667-68.266667z" fill="#000000" p-id="1143"></path><path d="M273.066667 413.815467a34.133333 34.133333 0 0 0-34.133334 34.133333v34.133333a34.133333 34.133333 0 0 0 34.133334 34.133334h34.133333a34.133333 34.133333 0 0 0 34.133333-34.133334v-34.133333a34.133333 34.133333 0 0 0-34.133333-34.133333h-34.133333z" fill="#72A697" p-id="1144"></path><path d="M290.133333 430.882133a34.133333 34.133333 0 1 1 0 68.266667 34.133333 34.133333 0 0 1 0-68.266667zM196.266667 430.882133a25.6 25.6 0 0 1 25.6 25.6v17.066667a25.6 25.6 0 0 1-51.2 0v-17.066667a25.6 25.6 0 0 1 25.6-25.6z m0 34.133334a8.533333 8.533333 0 0 0 8.533333-8.533334v17.066667a8.533333 8.533333 0 1 0-17.066667 0v-17.066667a8.533333 8.533333 0 0 0 8.533334 8.533334zM298.666667 516.215467h34.133333a42.666667 42.666667 0 0 1 42.666667 42.666666v221.866667a42.666667 42.666667 0 0 1-42.666667 42.666667h-34.133333a42.666667 42.666667 0 0 1-42.666667-42.666667v-221.866667a42.666667 42.666667 0 0 1 42.666667-42.666666z" fill="#000000" p-id="1145"></path><path d="M298.666667 550.3488a8.533333 8.533333 0 0 0-8.533334 8.533333v221.866667a8.533333 8.533333 0 0 0 8.533334 8.533333h34.133333a8.533333 8.533333 0 0 0 8.533333-8.533333v-221.866667a8.533333 8.533333 0 0 0-8.533333-8.533333h-34.133333z" fill="#D38745" p-id="1146"></path><path d="M285.866667 601.5488h25.6a17.066667 17.066667 0 0 0 0-34.133333h-25.6a17.066667 17.066667 0 1 0 0 34.133333zM513.706667 394.7008l157.866666-85.333333a17.066667 17.066667 0 0 0-16.213333-30.037334l-157.866667 85.333334a17.066667 17.066667 0 1 0 16.213334 30.037333zM452.573867 433.032533l14.916266-7.936a17.066667 17.066667 0 0 0-16.0256-30.139733l-14.916266 7.936a17.066667 17.066667 0 0 0 16.042666 30.139733zM285.866667 669.815467h25.6a17.066667 17.066667 0 0 0 0-34.133334h-25.6a17.066667 17.066667 0 1 0 0 34.133334zM285.866667 738.082133h25.6a17.066667 17.066667 0 0 0 0-34.133333h-25.6a17.066667 17.066667 0 1 0 0 34.133333zM722.176 566.596267a98.2528 98.2528 0 0 0 56.2688 17.885866c59.528533 0 106.786133-53.947733 106.786133-119.466666s-47.274667-119.466667-106.786133-119.466667c-20.309333 0-39.799467 6.365867-56.593067 18.107733l19.575467 27.972267a64.170667 64.170667 0 0 1 37.034667-11.946667c39.5776 0 72.635733 37.7344 72.635733 85.333334s-33.058133 85.333333-72.6528 85.333333c-13.1072 0-25.7024-4.096-36.8128-11.793067l-19.456 28.040534z" fill="#000000" p-id="1147"></path></svg>